<mxfile host="app.diagrams.net" modified="2023-05-20T06:25:19.293Z" agent="Mozilla/5.0 (Macintosh; Intel Mac OS X 10_15_7) AppleWebKit/537.36 (KHTML, like Gecko) Chrome/113.0.0.0 Safari/537.36" etag="BZx_uY6lYmsYouwdRXF0" version="21.3.2" type="github">
  <diagram id="C5RBs43oDa-KdzZeNtuy" name="Page-1">
    <mxGraphModel dx="1618" dy="1054" grid="1" gridSize="10" guides="1" tooltips="1" connect="1" arrows="1" fold="1" page="1" pageScale="1" pageWidth="827" pageHeight="1169" math="0" shadow="0">
      <root>
        <mxCell id="WIyWlLk6GJQsqaUBKTNV-0" />
        <mxCell id="WIyWlLk6GJQsqaUBKTNV-1" parent="WIyWlLk6GJQsqaUBKTNV-0" />
        <mxCell id="fcGTVNWd_TV8kaiuEfBI-0" value="" style="rounded=0;html=1;jettySize=auto;orthogonalLoop=1;fontSize=11;endArrow=block;endFill=0;endSize=8;strokeWidth=1;shadow=0;labelBackgroundColor=none;edgeStyle=orthogonalEdgeStyle;" parent="WIyWlLk6GJQsqaUBKTNV-1" source="fcGTVNWd_TV8kaiuEfBI-1" target="fcGTVNWd_TV8kaiuEfBI-4" edge="1">
          <mxGeometry relative="1" as="geometry">
            <Array as="points">
              <mxPoint x="270" y="285" />
              <mxPoint x="270" y="285" />
            </Array>
          </mxGeometry>
        </mxCell>
        <mxCell id="GW43se2g0xHfsc_rCMs8-4" value="" style="edgeStyle=orthogonalEdgeStyle;rounded=0;orthogonalLoop=1;jettySize=auto;html=1;" parent="WIyWlLk6GJQsqaUBKTNV-1" source="fcGTVNWd_TV8kaiuEfBI-1" target="GW43se2g0xHfsc_rCMs8-3" edge="1">
          <mxGeometry relative="1" as="geometry" />
        </mxCell>
        <mxCell id="fcGTVNWd_TV8kaiuEfBI-1" value="初始化" style="rounded=1;whiteSpace=wrap;html=1;fontSize=12;glass=0;strokeWidth=1;shadow=0;" parent="WIyWlLk6GJQsqaUBKTNV-1" vertex="1">
          <mxGeometry x="30" y="140" width="120" height="50" as="geometry" />
        </mxCell>
        <mxCell id="fcGTVNWd_TV8kaiuEfBI-3" value="" style="edgeStyle=orthogonalEdgeStyle;rounded=0;html=1;jettySize=auto;orthogonalLoop=1;fontSize=11;endArrow=block;endFill=0;endSize=8;strokeWidth=1;shadow=0;labelBackgroundColor=none;" parent="WIyWlLk6GJQsqaUBKTNV-1" source="fcGTVNWd_TV8kaiuEfBI-4" target="fcGTVNWd_TV8kaiuEfBI-6" edge="1">
          <mxGeometry y="10" relative="1" as="geometry">
            <mxPoint as="offset" />
          </mxGeometry>
        </mxCell>
        <mxCell id="fcGTVNWd_TV8kaiuEfBI-4" value="observer 观测data&lt;br&gt;&lt;span style=&quot;white-space: pre;&quot;&gt; &lt;/span&gt;初始化Obsever" style="rhombus;whiteSpace=wrap;html=1;shadow=0;fontFamily=Helvetica;fontSize=12;align=center;strokeWidth=1;spacing=6;spacingTop=-4;" parent="WIyWlLk6GJQsqaUBKTNV-1" vertex="1">
          <mxGeometry x="180" y="280" width="140" height="140" as="geometry" />
        </mxCell>
        <mxCell id="fcGTVNWd_TV8kaiuEfBI-5" style="rounded=0;html=1;jettySize=auto;orthogonalLoop=1;fontSize=11;endArrow=block;endFill=0;endSize=8;strokeWidth=1;shadow=0;labelBackgroundColor=none;edgeStyle=orthogonalEdgeStyle;" parent="WIyWlLk6GJQsqaUBKTNV-1" source="fcGTVNWd_TV8kaiuEfBI-6" edge="1">
          <mxGeometry relative="1" as="geometry">
            <mxPoint x="590" y="350" as="targetPoint" />
          </mxGeometry>
        </mxCell>
        <mxCell id="fcGTVNWd_TV8kaiuEfBI-6" value="数据的 get set" style="rounded=1;whiteSpace=wrap;html=1;fontSize=12;glass=0;strokeWidth=1;shadow=0;" parent="WIyWlLk6GJQsqaUBKTNV-1" vertex="1">
          <mxGeometry x="370" y="330" width="130" height="40" as="geometry" />
        </mxCell>
        <mxCell id="fcGTVNWd_TV8kaiuEfBI-7" value="No" style="rounded=0;html=1;jettySize=auto;orthogonalLoop=1;fontSize=11;endArrow=block;endFill=0;endSize=8;strokeWidth=1;shadow=0;labelBackgroundColor=none;edgeStyle=orthogonalEdgeStyle;" parent="WIyWlLk6GJQsqaUBKTNV-1" source="fcGTVNWd_TV8kaiuEfBI-8" target="fcGTVNWd_TV8kaiuEfBI-11" edge="1">
          <mxGeometry x="0.3333" y="20" relative="1" as="geometry">
            <mxPoint as="offset" />
          </mxGeometry>
        </mxCell>
        <mxCell id="GW43se2g0xHfsc_rCMs8-0" style="edgeStyle=orthogonalEdgeStyle;rounded=0;orthogonalLoop=1;jettySize=auto;html=1;entryX=0;entryY=0.5;entryDx=0;entryDy=0;" parent="WIyWlLk6GJQsqaUBKTNV-1" target="fcGTVNWd_TV8kaiuEfBI-8" edge="1">
          <mxGeometry relative="1" as="geometry">
            <mxPoint x="120" y="470" as="targetPoint" />
            <mxPoint x="150" y="470" as="sourcePoint" />
            <Array as="points" />
          </mxGeometry>
        </mxCell>
        <mxCell id="fcGTVNWd_TV8kaiuEfBI-8" value="编译模版" style="rhombus;whiteSpace=wrap;html=1;shadow=0;fontFamily=Helvetica;fontSize=12;align=center;strokeWidth=1;spacing=6;spacingTop=-4;" parent="WIyWlLk6GJQsqaUBKTNV-1" vertex="1">
          <mxGeometry x="220" y="430" width="100" height="80" as="geometry" />
        </mxCell>
        <mxCell id="fcGTVNWd_TV8kaiuEfBI-9" value="触发 get 并收集&lt;font face=&quot;Verdana&quot;&gt;依赖&lt;/font&gt;" style="rounded=0;html=1;jettySize=auto;orthogonalLoop=1;fontSize=11;endArrow=block;endFill=0;endSize=8;strokeWidth=1;shadow=0;labelBackgroundColor=none;edgeStyle=orthogonalEdgeStyle;horizontal=0;verticalAlign=bottom;" parent="WIyWlLk6GJQsqaUBKTNV-1" source="fcGTVNWd_TV8kaiuEfBI-11" edge="1">
          <mxGeometry x="0.25" y="-20" relative="1" as="geometry">
            <mxPoint x="440" y="380" as="targetPoint" />
            <Array as="points">
              <mxPoint x="440" y="590" />
            </Array>
            <mxPoint as="offset" />
          </mxGeometry>
        </mxCell>
        <mxCell id="fcGTVNWd_TV8kaiuEfBI-10" style="rounded=0;html=1;jettySize=auto;orthogonalLoop=1;fontSize=11;endArrow=block;endFill=0;endSize=8;strokeWidth=1;shadow=0;labelBackgroundColor=none;edgeStyle=orthogonalEdgeStyle;" parent="WIyWlLk6GJQsqaUBKTNV-1" source="fcGTVNWd_TV8kaiuEfBI-11" edge="1">
          <mxGeometry relative="1" as="geometry">
            <mxPoint x="270" y="652" as="targetPoint" />
          </mxGeometry>
        </mxCell>
        <mxCell id="fcGTVNWd_TV8kaiuEfBI-11" value="new watcher" style="rounded=1;whiteSpace=wrap;html=1;fontSize=12;glass=0;strokeWidth=1;shadow=0;" parent="WIyWlLk6GJQsqaUBKTNV-1" vertex="1">
          <mxGeometry x="210" y="570" width="120" height="40" as="geometry" />
        </mxCell>
        <mxCell id="fcGTVNWd_TV8kaiuEfBI-12" value="传入的回调函数会在更新时触发" style="shape=document;whiteSpace=wrap;html=1;boundedLbl=1;" parent="WIyWlLk6GJQsqaUBKTNV-1" vertex="1">
          <mxGeometry x="210" y="650" width="120" height="80" as="geometry" />
        </mxCell>
        <mxCell id="fcGTVNWd_TV8kaiuEfBI-13" value="new Dep&amp;nbsp; &amp;nbsp;通过全局 Dep.target&amp;nbsp; 属性添加依赖" style="strokeWidth=2;html=1;shape=mxgraph.flowchart.document2;whiteSpace=wrap;size=0.25;" parent="WIyWlLk6GJQsqaUBKTNV-1" vertex="1">
          <mxGeometry x="590" y="320" width="150" height="100" as="geometry" />
        </mxCell>
        <mxCell id="GW43se2g0xHfsc_rCMs8-3" value="compiler" style="whiteSpace=wrap;html=1;rounded=1;glass=0;strokeWidth=1;shadow=0;" parent="WIyWlLk6GJQsqaUBKTNV-1" vertex="1">
          <mxGeometry x="30" y="440" width="120" height="60" as="geometry" />
        </mxCell>
        <mxCell id="AL5H5krLXdhHwstWjdDW-0" value="初始化 options&amp;nbsp; -&amp;gt; poxy&amp;nbsp; 将 this.$data代理 this 上面 -&amp;gt;&amp;nbsp; &amp;nbsp;observer 观测data -&amp;gt; compiler 编译模板 -&amp;gt;&amp;nbsp; 遇到双花括弧 或者v- 绑定的动态指令&amp;nbsp; new Watcher" style="text;html=1;align=center;verticalAlign=middle;resizable=0;points=[];autosize=1;strokeColor=none;fillColor=none;fontSize=14;" vertex="1" parent="WIyWlLk6GJQsqaUBKTNV-1">
          <mxGeometry x="-590" y="830" width="960" height="30" as="geometry" />
        </mxCell>
        <mxCell id="AL5H5krLXdhHwstWjdDW-1" value="watcher 里面初始化了 update 方法 里面就是 更新 data 属性的回掉函数 -&amp;gt; 触发了 依赖的 get 函数 收集了 当前的这个watcher 作为 更新data 属性的依赖 ，&amp;nbsp; 当再次改动data 的属性时候 ， set 会通知dep 触发当先data属性绑定的所有watcher&amp;nbsp;&amp;nbsp;" style="text;html=1;align=center;verticalAlign=middle;resizable=0;points=[];autosize=1;strokeColor=none;fillColor=none;fontSize=14;" vertex="1" parent="WIyWlLk6GJQsqaUBKTNV-1">
          <mxGeometry x="-630" y="860" width="1510" height="30" as="geometry" />
        </mxCell>
        <mxCell id="AL5H5krLXdhHwstWjdDW-3" value="Text" style="text;html=1;strokeColor=none;fillColor=none;align=center;verticalAlign=middle;whiteSpace=wrap;rounded=0;" vertex="1" parent="WIyWlLk6GJQsqaUBKTNV-1">
          <mxGeometry x="260" y="490" width="60" height="30" as="geometry" />
        </mxCell>
        <mxCell id="AL5H5krLXdhHwstWjdDW-4" value="在observer 中 会new 一个dep 在get 中 用于收集当前data 属性 的所有依赖 ，在set 中 会 更新dep中绑定的所有依赖性" style="text;html=1;align=center;verticalAlign=middle;resizable=0;points=[];autosize=1;strokeColor=none;fillColor=none;fontSize=14;" vertex="1" parent="WIyWlLk6GJQsqaUBKTNV-1">
          <mxGeometry x="-575" y="898" width="750" height="30" as="geometry" />
        </mxCell>
      </root>
    </mxGraphModel>
  </diagram>
</mxfile>
